g CardModel04_front
v 2.837503 0 -4.286128
v 2.767765 0 -4.3
v -2.767765 0 -4.3
v -2.837503 0 -4.286128
v 2.896625 0 -4.246624
v -2.896625 0 -4.246624
v 2.936128 0 -4.187503
v -2.936128 0 -4.187503
v 2.95 0 -4.117765
v -2.95 0 -4.117765
v 2.95 0 4.117765
v -2.95 0 4.117765
v 2.936128 0 4.187503
v -2.936128 0 4.187503
v 2.896625 0 4.246624
v -2.896625 0 4.246624
v -2.837503 0 4.286128
v 2.837503 0 4.286128
v -2.767765 0 4.3
v 2.767765 0 4.3
vt 0.980957 0.001613617
vt 0.9692383 5.960464E-07
vt 0.03074646 3.576279E-07
vt 0.0189209 0.001612663
vt 0.9912109 0.006206512
vt 0.008888245 0.006206512
vt 0.9980469 0.01308441
vt 0.002195358 0.01308441
vt 1 0.02119446
vt -0.0001574755 0.02119446
vt 1 0.9790039
vt -0.0001573563 0.9790039
vt 0.9980469 0.9868164
vt 0.002195358 0.9868164
vt 0.9912109 0.9936523
vt 0.008888245 0.9936523
vt 0.0189209 0.9985352
vt 0.980957 0.9985352
vt 0.03074646 1
vt 0.9692383 1
vn 0 -1 0
vn 0 -1 0
vn 0 -1 0
vn 0 -1 0
vn 0 -1 0
vn 0 -1 0
vn 0 -1 0
vn 0 -1 0
vn 0 -1 0
vn 0 -1 0
vn 0 -1 0
vn 0 -1 0
vn 0 -1 0
vn 0 -1 0
vn 0 -1 0
vn 0 -1 0
vn 0 -1 0
vn 0 -1 0
vn 0 -1 0
vn 0 -1 0
g CardModel04_front_0
f 3/3/3 2/2/2 1/1/1
f 4/4/4 3/3/3 1/1/1
f 5/5/5 4/4/4 1/1/1
f 5/5/5 6/6/6 4/4/4
f 7/7/7 6/6/6 5/5/5
f 7/7/7 8/8/8 6/6/6
f 9/9/9 8/8/8 7/7/7
f 9/9/9 10/10/10 8/8/8
f 11/11/11 10/10/10 9/9/9
f 11/11/11 12/12/12 10/10/10
f 12/12/12 11/11/11 13/13/13
f 12/12/12 13/13/13 14/14/14
f 14/14/14 13/13/13 15/15/15
f 14/14/14 15/15/15 16/16/16
f 17/17/17 16/16/16 15/15/15
f 17/17/17 15/15/15 18/18/18
f 19/19/19 17/17/17 18/18/18
f 20/20/20 19/19/19 18/18/18
